<svg id="icon" xmlns="http://www.w3.org/2000/svg" viewBox="0 0 12.7 12.7"><path d="M5.056 4.2a.353.353 0 0 0-.2.18.353.353 0 0 0 .167.47L7.14 5.854a.353.353 0 0 0 .302 0L9.558 4.85a.353.353 0 0 0 .168-.47.353.353 0 0 0-.47-.167l-1.965.932-1.966-.932a.353.353 0 0 0-.27-.014ZM1.41 5.291a.353.353 0 0 0-.353.352.353.353 0 0 0 .353.353h1.882a.353.353 0 0 0 .353-.353.353.353 0 0 0-.353-.352Zm.94 1.41A.353.353 0 0 0 2 7.057a.353.353 0 0 0 .353.352h.94a.353.353 0 0 0 .354-.352.353.353 0 0 0-.353-.353Z"/><path d="M4.233 2.705c-.71 0-1.293.583-1.293 1.293v.235a.353.353 0 0 0 .353.353.353.353 0 0 0 .353-.353v-.235c0-.329.258-.588.587-.588h6.115c.329 0 .588.26.588.588v4.704c0 .329-.259.588-.588.588H4.233a.583.583 0 0 1-.587-.588v-.235a.353.353 0 0 0-.353-.353.353.353 0 0 0-.353.353v.235c0 .71.583 1.293 1.293 1.293h6.115c.71 0 1.294-.583 1.294-1.293V3.998c0-.71-.584-1.293-1.294-1.293z" /><g fill="#c42400"><path d="M117.223 207.402a2 2 0 1 0 0 4h24.925a2 2 0 1 0 0-4zm0 2h24.925m-2.982-11.48a2 2 0 0 0-1.414.586l-18.961 18.96a2 2 0 0 0 2.828 2.829l18.961-18.961a2 2 0 0 0-1.414-3.414zm-18.96 20.96 18.96-18.96m-20.375-1.414a2 2 0 0 0 0 2.828l18.96 18.96a2 2 0 0 0 2.83-2.827l-18.962-18.961a2 2 0 0 0-2.828 0zm1.414 1.414 18.96 18.96" transform="matrix(.11477 0 0 .11477 -6.028 -16.493)"/><g ><path d="M135.75 209.402a6.065 6.065 0 0 1-6.065 6.066 6.065 6.065 0 0 1-6.065-6.066 6.065 6.065 0 0 1 6.065-6.065 6.065 6.065 0 0 1 6.066 6.065z"  transform="matrix(.11477 0 0 .11477 -6.028 -16.493)"/><path d="M129.686 200.402c-4.936 0-9 4.065-9 9 0 4.936 4.064 9 9 9 4.935 0 9-4.064 9-9 0-4.935-4.065-9-9-9zm0 5.87c1.763 0 3.13 1.366 3.13 3.13 0 1.764-1.367 3.131-3.13 3.131-1.764 0-3.131-1.367-3.131-3.13 0-1.765 1.367-3.132 3.13-3.132z"  transform="matrix(.11477 0 0 .11477 -6.028 -16.493)"/></g><g ><path d="M131.961 200.543a2.276 2.276 0 0 1-2.276 2.276 2.276 2.276 0 0 1-2.276-2.276 2.276 2.276 0 0 1 2.276-2.276 2.276 2.276 0 0 1 2.276 2.276z"  transform="matrix(.11477 0 0 .11477 -6.028 -16.493)"/><path d="M129.686 196.643c-2.135 0-3.9 1.765-3.9 3.9s1.765 3.9 3.9 3.9c2.134 0 3.9-1.765 3.9-3.9s-1.766-3.9-3.9-3.9zm0 3.248a.63.63 0 0 1 .652.652.63.63 0 0 1-.652.652.63.63 0 0 1-.653-.652.63.63 0 0 1 .653-.652z"  transform="matrix(.11477 0 0 .11477 -6.028 -16.493)"/></g></g></svg>
